<?xml version="1.0" encoding="utf-8"?>
<!-- Generator: Adobe Illustrator 21.1.0, SVG Export Plug-In . SVG Version: 6.00 Build 0)  -->
<svg version="1.1" id="Layer_1" xmlns="http://www.w3.org/2000/svg" xmlns:xlink="http://www.w3.org/1999/xlink" x="0px" y="0px"
	 viewBox="0 0 576 331.2" style="enable-background:new 0 0 576 331.2;" xml:space="preserve">
<style type="text/css">
	.st0{fill:#00ADBF;}
	.st1{fill:#9DBBAE;}
</style>
<rect x="475.5" y="110.4" class="st0" width="69.7" height="109.7"/>
<g>
	<g>
		<path class="st1" d="M101.5,206c3.7,0,7,2,7,7c0,5.1-3.4,7-7,7H38.9V110.4h62.6c3.7,0,7,2,7,7c0,5.1-3.4,7-7,7H53v33.7h20.7
			c3.7,0,7,2,7,7s-3.4,7-7,7H53V206H101.5z"/>
		<path class="st1" d="M140.4,213.1c0,4.5-2,7-7,7s-7-2.5-7-7V110.4h46.8c6.5,0,11.1,1,16.2,5.8c6.1,5.6,6.6,10.9,6.6,18.5v19.2
			c0,7.2-0.6,12.3-5.8,18c-5.5,6.2-11.3,6.8-18.9,6.8h-30.9V213.1z M140.4,164.6h31.3c8.3,0,10.1-2.1,10.1-10.1v-19.7
			c0-8-1.8-10.1-10.1-10.1h-31.3V164.6z"/>
		<path class="st1" d="M279.7,150.1c2.7,5.5,3.7,9.6,3.7,15.6c0,6.8-1.8,11-4.7,16.8l-13,25.9c-3.4,6.8-9,11.7-17.2,11.7
			c-8.2,0-13.8-4.9-17.2-11.7l-13-25.9c-2.8-5.8-4.7-10-4.7-16.8c0-6.1,1-10.1,3.7-15.6l14.1-28.1c3.4-6.6,9.2-11.6,17.1-11.6
			c7.9,0,13.7,4.9,17.1,11.6L279.7,150.1z M253.3,128.8c-1.1-2.3-1.8-4.2-4.8-4.2c-3,0-3.7,2-4.8,4.2l-12.7,25.5
			c-2.1,4.1-3.2,6.8-3.2,11.4c0,3.7,0.8,6.2,2.4,9.3l13.5,26.8c1,2,2,4.2,4.8,4.2c2.8,0,3.8-2.3,4.8-4.2l13.5-26.8
			c1.6-3.1,2.4-5.6,2.4-9.3c0-4.7-1.1-7.3-3.2-11.4L253.3,128.8z"/>
		<path class="st1" d="M339,220.1c-10.6,0-16.6-4.2-21.1-13.4l-13-26.2c-2.4-4.8-3.8-9.3-3.8-14.8c0-6.2,1.1-10,3.9-15.6l13-26.1
			c4.8-9.7,10.9-13.5,21.7-13.5h24c3.1,0,7,1.7,7,7c0,5.1-3.8,7-7,7h-23.5c-6.1,0-7,0.6-9.7,5.9L318.2,155c-1.8,3.8-3,6.3-3,10.7
			c0,3.9,1.3,6.3,3,9.7l12,24.4c2.8,5.8,4.2,6.2,10.6,6.2h23c3.1,0,7,1.7,7,7c0,5.1-3.8,7-7,7H339z"/>
		<path class="st1" d="M402.6,172.3v40.7c0,4.5-2,7-7,7s-7-2.5-7-7v-95.6c0-4.5,2-7,7-7s7,2.5,7,7v40.7H444v-40.7c0-4.5,2-7,7-7
			c5.1,0,7,2.5,7,7v95.6c0,4.5-2,7-7,7c-5.1,0-7-2.5-7-7v-40.7H402.6z"/>
	</g>
</g>
</svg>
